PathFileType  4	(X/Y/Z) C:\Users\antoi\Documents\MyRepositories\mobilecap\ResultsAnalysis
DataRate	CameraRate	NumFrames	NumMarkers	Units	OrigDataRate	OrigDataStartFrame	OrigNumFrames
100.0	100.0	4	51	mm	100.0	321	1280
Frame#	Time	r_knee			r_shank_antsup			r_ankle			r_calc			r_5meta			r_toe			L_knee			L_shank_antsup			L_ankle			L_calc			L_5meta			L_toe			r_sh2			r_sh3			r_sh4			L_sh2			L_sh3			r_thigh1			r_thigh2			r_thigh3			r_thigh4			r_thigh5			L_thigh1			L_thigh2			L_thigh3			L_thigh4			r.ASIS			r.PSIS			L.ASIS			L.PSIS			C7			R_Shoulder			L_Shoulder			R_Sternum			L_Sternum			R_humerus			R_elbow_med			R_elbow_lat			R_forearm			R_wrist_radius			R_wrist_ulna			L_humerus			L_elbow_med			L_elbow_lat			L_forearm			L_wrist_radius			L_wrist_ulna			R_HJC			L_HJC			R_HJC_reg			L_HJC_reg			
		X1	Y1	Z1	X2	Y2	Z2	X3	Y3	Z3	X4	Y4	Z4	X5	Y5	Z5	X6	Y6	Z6	X7	Y7	Z7	X8	Y8	Z8	X9	Y9	Z9	X10	Y10	Z10	X11	Y11	Z11	X12	Y12	Z12	X13	Y13	Z13	X14	Y14	Z14	X15	Y15	Z15	X16	Y16	Z16	X17	Y17	Z17	X18	Y18	Z18	X19	Y19	Z19	X20	Y20	Z20	X21	Y21	Z21	X22	Y22	Z22	X23	Y23	Z23	X24	Y24	Z24	X25	Y25	Z25	X26	Y26	Z26	X27	Y27	Z27	X28	Y28	Z28	X29	Y29	Z29	X30	Y30	Z30	X31	Y31	Z31	X32	Y32	Z32	X33	Y33	Z33	X34	Y34	Z34	X35	Y35	Z35	X36	Y36	Z36	X37	Y37	Z37	X38	Y38	Z38	X39	Y39	Z39	X40	Y40	Z40	X41	Y41	Z41	X42	Y42	Z42	X43	Y43	Z43	X44	Y44	Z44	X45	Y45	Z45	X46	Y46	Z46	X47	Y47	Z47	X48	Y48	Z48	X49	Y49	Z49	X50	Y50	Z50	X51	Y51	Z51	

321	3.20000000	-247.10236	472.33089	-332.99444	-214.21528	360.06851	-351.18843	-290.89554	89.00952	-379.27562	-335.24123	51.99569	-437.48933	-184.67624	39.29110	-334.89314	-143.44804	57.17454	-374.23393	-262.41907	478.62974	-744.60293	-217.61218	375.38511	-738.57922	-300.66511	95.08481	-810.72580	-338.02394	52.20663	-765.06239	-182.53374	36.19932	-852.99152	-138.22047	57.18807	-804.88164	-226.55512	249.46635	-367.35645	-271.16268	357.94727	-300.76136	-298.04377	251.73005	-327.25623	-284.20512	412.20186	-787.30397	-300.03843	297.05678	-823.16042	-162.57669	777.41848	-335.63684	-156.97510	667.90913	-332.94146	-202.84409	640.81643	-291.91358	-267.04690	769.52270	-294.30616	-257.10785	654.59756	-291.88703	-187.18279	760.77159	-700.27017	-179.34835	627.97651	-727.76483	-297.92833	767.84503	-712.46851	-289.03810	628.24726	-736.83977	-150.91047	933.06677	-372.62553	-325.75542	988.83413	-454.11498	-136.82129	914.07148	-619.31690	-320.15602	982.58418	-570.03627	-273.57768	1427.16555	-477.19815	-222.89238	1395.39832	-322.33055	-204.85324	1414.37335	-630.05811	-144.67276	1380.90960	-447.37226	-141.50626	1381.83137	-490.25244	-219.04520	1275.77341	-247.02175	-332.88192	1086.35901	-265.66873	-287.10598	1106.40250	-197.75136	-178.50337	1120.55607	-256.43971	-105.54966	1138.03316	-324.84225	-87.13460	1110.02971	-304.68449	-191.44273	1275.79156	-712.68915	-293.33944	1094.69322	-712.99289	-251.69252	1109.34072	-780.51788	-162.60567	1113.45653	-713.44155	-96.91406	1125.78038	-607.53578	-77.78721	1103.18860	-620.82326	-246.64379	869.22204	-399.95361	-232.39532	851.70590	-587.98054	-227.92173	865.18270	-407.56911	-220.04157	856.38720	-570.70513	
322	3.21000000	-246.30641	472.12714	-332.97614	-213.39681	359.89705	-351.19004	-290.85050	89.03737	-379.23521	-335.21642	52.00649	-437.45646	-184.64993	39.31261	-334.89307	-143.42473	57.13740	-374.23171	-262.25490	478.53696	-744.40087	-217.54806	375.26436	-738.29673	-300.60500	95.12853	-810.69111	-338.03458	52.19169	-764.98482	-182.56253	36.06478	-852.67880	-138.21539	57.15015	-804.75150	-225.96137	249.32901	-367.24096	-270.36375	357.90710	-300.78657	-297.69732	251.68335	-327.39720	-283.97983	412.14012	-787.01140	-299.73508	297.13804	-823.05850	-162.73903	777.58007	-335.07639	-156.81993	668.02705	-332.44285	-202.65376	640.71606	-291.69689	-267.27465	769.28174	-294.04685	-257.02977	654.52195	-291.47069	-187.58703	760.56996	-699.73148	-179.38711	627.75690	-726.94550	-298.26571	767.49771	-712.21594	-289.09528	627.95078	-736.58596	-151.16510	932.88941	-372.24255	-325.96164	989.00853	-453.85301	-137.39325	913.80586	-618.79958	-320.54274	982.59803	-569.54697	-272.87523	1427.24528	-476.94861	-222.07468	1395.36490	-322.15989	-204.12400	1414.24763	-629.83173	-144.03292	1380.84621	-447.12176	-141.68379	1379.98487	-491.94671	-217.88037	1275.76350	-246.95181	-331.40631	1086.14501	-265.06938	-285.46024	1106.30491	-197.36350	-177.08096	1120.74414	-256.23852	-104.40941	1138.52652	-324.92135	-85.82132	1110.54988	-304.79962	-190.20512	1275.52607	-712.18567	-291.60441	1094.18893	-712.33063	-249.76810	1108.74248	-779.90300	-160.91332	1113.25550	-712.50507	-95.60082	1126.24849	-606.61322	-76.44397	1103.50504	-619.57376	-247.10233	869.25792	-399.47227	-232.98878	851.58030	-587.49423	-228.36054	865.34879	-406.97782	-220.72415	856.31471	-570.01664	
323	3.22000000	-245.56166	471.91928	-332.94875	-212.62538	359.75914	-351.20117	-290.81388	89.07431	-379.19726	-335.20168	52.01832	-437.44326	-184.64550	39.30655	-334.90549	-143.40386	57.10222	-374.21644	-262.01189	478.43578	-744.29530	-217.44993	375.16501	-737.97454	-300.57798	95.16372	-810.65328	-337.94765	52.02100	-764.77557	-182.58020	35.97141	-852.44867	-138.20462	57.15020	-804.67318	-225.63675	249.42588	-367.16421	-269.55687	357.74262	-300.93425	-297.37897	251.68431	-327.48397	-283.75042	412.09638	-786.65195	-299.40520	297.13232	-822.89562	-162.87720	777.74516	-334.54407	-156.69881	668.13571	-331.87812	-202.40294	640.62086	-291.28390	-267.51670	769.10716	-293.71790	-256.95215	654.47245	-291.14088	-188.03196	760.36380	-699.04061	-179.47419	627.48892	-726.06380	-298.63223	767.11759	-711.95516	-289.09608	627.63503	-736.34629	-151.29104	932.75091	-371.81345	-326.08656	989.17221	-453.43671	-138.04245	913.58353	-618.35249	-320.99684	982.67841	-568.92180	-272.09795	1427.27794	-476.66527	-221.24050	1395.39581	-321.82777	-203.34716	1414.04735	-629.59690	-143.38204	1380.76929	-446.96782	-142.25497	1378.34512	-493.95014	-216.66534	1275.81458	-246.76799	-329.91593	1085.99354	-264.48439	-283.76222	1106.14939	-196.91850	-175.63371	1120.98642	-256.08219	-103.25645	1139.03345	-324.98063	-84.56190	1111.34224	-304.48607	-188.88627	1275.34195	-711.73122	-289.70562	1093.62648	-711.94474	-247.73842	1108.14569	-779.28408	-159.13745	1113.13290	-711.49994	-94.30616	1126.73754	-605.48362	-75.04882	1103.90513	-618.40281	-247.44482	869.31348	-398.92395	-233.63302	851.50112	-586.95554	-228.64495	865.43868	-406.29050	-221.46021	856.27153	-569.31557	
324	3.23000000	-244.86554	471.76465	-332.88647	-211.95490	359.63589	-351.20360	-290.77365	89.07933	-379.20353	-335.17732	52.02050	-437.42923	-184.64776	39.27241	-334.90063	-143.39225	57.05899	-374.18235	-261.72337	478.24356	-744.00244	-217.28760	375.10783	-737.65144	-300.57381	95.22009	-810.60151	-337.88630	51.91659	-764.62968	-182.56026	35.97870	-852.40537	-138.18258	57.17967	-804.63199	-225.32183	249.40996	-367.09852	-268.90390	357.70064	-300.82851	-296.78336	251.58176	-327.59691	-283.56480	412.09985	-786.30153	-299.16331	297.15036	-822.73643	-163.02017	777.85009	-334.06681	-156.56008	668.24730	-331.35473	-202.17677	640.55365	-290.79377	-267.68470	768.95104	-293.32507	-256.81292	654.39868	-290.89399	-188.41708	760.21898	-698.37727	-179.58351	627.28562	-725.30712	-299.01398	766.73233	-711.66293	-289.09873	627.23836	-735.95471	-151.37880	932.55274	-371.42708	-326.14835	989.26645	-452.76238	-138.73587	913.30819	-617.99752	-321.45945	982.73143	-568.26710	-271.29669	1427.30023	-476.46193	-220.32131	1395.48792	-321.42387	-202.50056	1413.88079	-629.36864	-142.58478	1380.63789	-446.79201	-141.49074	1378.44968	-493.57886	-215.42810	1275.93743	-246.45214	-328.42998	1085.90041	-263.89141	-281.99140	1105.98137	-196.56092	-174.18199	1121.30018	-256.10021	-102.08205	1139.59484	-325.08956	-83.31018	1112.30769	-304.07300	-187.46319	1275.13605	-711.14817	-287.66879	1093.07397	-711.61294	-245.55601	1107.59878	-778.56809	-157.25432	1113.02666	-710.48742	-92.96136	1127.16548	-604.05229	-73.59475	1104.39058	-617.08686	-247.70698	869.29316	-398.34812	-234.33298	851.38986	-586.40274	-228.85558	865.40507	-405.62163	-222.23664	856.18019	-568.67127	
